<?xml version="1.0" encoding="utf-8"?>
<!-- Generator: Adobe Illustrator 16.0.0, SVG Export Plug-In . SVG Version: 6.00 Build 0)  -->
<!DOCTYPE svg PUBLIC "-//W3C//DTD SVG 1.1//EN" "http://www.w3.org/Graphics/SVG/1.1/DTD/svg11.dtd">
<svg version="1.1" id="Layer_1" xmlns="http://www.w3.org/2000/svg" xmlns:xlink="http://www.w3.org/1999/xlink" x="0px" y="0px"
	 width="441.433px" height="90.5px" viewBox="0 0 441.433 90.5" enable-background="new 0 0 441.433 90.5" xml:space="preserve">
<path fill="#FFFFFF" d="M430.632,31.868c0.039,8.095-2.32,15.149-8.615,20.444c-3.646,3.068-7.939,4.681-12.549,5.461
	c-6.502,1.104-12.912,0.685-18.988-2.004c-9.289-4.109-13.652-11.699-14.344-21.84c-0.814-11.965,4.518-21.662,14.73-26
	c6.535-2.776,13.373-3.081,20.242-1.533C423.621,9.217,430.615,18.416,430.632,31.868z M416.748,32.059
	c0.029-8.676-5.248-14.364-13.34-14.374c-7.855-0.011-13.381,5.848-13.408,14.217c-0.023,8.347,5.525,14.223,13.406,14.192
	C411.326,46.064,416.716,40.393,416.748,32.059z"/>
<path fill="#FFFFFF" d="M49.858,13.406c-2.697,2.699-5.338,5.346-8.093,8.102c-2.594-2.239-5.642-3.698-9.191-4.135
	c-8.687-1.071-14.786,4.045-14.991,12.994c-0.061,2.688,0.255,5.539,1.107,8.064c1.686,4.988,5.471,7.534,10.615,7.883
	c3.328,0.225,6.597-0.121,9.552-1.815c0.61-0.351,1.123-1.336,1.211-2.087c0.186-1.557,0.057-3.153,0.057-4.982
	c-4.148,0-8.172,0-12.326,0c0-3.756,0-7.267,0-10.957c7.875,0,15.768,0,23.86,0c0,0.708,0,1.363,0,2.02
	c0,5.932-0.093,11.864,0.048,17.792c0.055,2.299-0.771,3.979-2.255,5.521c-2.365,2.463-5.238,4.037-8.425,5.024
	c-6.808,2.106-13.671,2.247-20.49,0.146C12.254,54.421,6.931,48.755,4.8,40.214c-2.543-10.197-1.028-19.64,6.333-27.398
	c6.015-6.341,13.796-7.86,22.105-7.407C39.827,5.767,45.289,8.531,49.858,13.406z"/>
<path fill="#FFFFFF" d="M166.839,56.967c1.783-4.105,3.436-7.947,5.117-11.775c5.386-12.25,10.798-24.486,16.142-36.756
	c0.547-1.259,1.228-1.668,2.553-1.634c3.643,0.098,7.291-0.016,10.934,0.077c0.604,0.016,1.516,0.505,1.745,1.024
	c7.12,16.136,14.174,32.305,21.232,48.469c0.041,0.096-0.008,0.232-0.025,0.615c-2.104,0-4.222,0-6.342,0
	c-2.271,0-4.542-0.039-6.812,0.019c-1.024,0.025-1.606-0.222-1.961-1.339c-0.604-1.912-1.482-3.732-2.159-5.623
	c-0.339-0.945-0.835-1.298-1.838-1.29c-6.454,0.043-12.908,0.043-19.36,0c-1.022-0.008-1.451,0.378-1.774,1.34
	c-0.639,1.902-1.402,3.765-2.195,5.607c-0.21,0.489-0.71,1.205-1.087,1.212C176.374,56.996,171.738,56.967,166.839,56.967z
	 M195.807,20.922c-2.184,5.544-4.175,10.602-6.249,15.871c4.255,0,8.211,0,12.413,0C199.941,31.568,197.974,26.504,195.807,20.922z"
	/>
<path fill="#FFFFFF" d="M295.931,31.376c7.309,8.382,14.551,16.688,22.055,25.297c-0.793,0.179-1.059,0.288-1.32,0.289
	c-5.141,0.017-10.281,0.065-15.42-0.026c-0.685-0.013-1.52-0.604-2.01-1.172c-3.742-4.363-7.418-8.787-11.115-13.188
	c-0.494-0.589-1.007-1.164-1.795-2.074c0,5.67,0,10.937,0,16.342c-4.707,0-9.216,0-13.863,0c0-16.577,0-33.165,0-49.881
	c4.545,0,9.058,0,13.74,0c0,5.256,0,10.482,0,16.298c2.383-3.013,4.432-5.58,6.461-8.167c1.866-2.383,3.68-4.813,5.59-7.16
	c0.41-0.502,1.131-1.039,1.713-1.048c5.021-0.076,10.043-0.038,15.063-0.021c0.219,0.001,0.434,0.113,1.158,0.316
	C309.322,15.379,302.645,23.355,295.931,31.376z"/>
<path fill="#FFFFFF" d="M81.708,5.431c14.019-0.011,25.4,11.548,25.393,25.783C107.09,45.657,95.799,57.232,81.73,57.221
	c-14.034-0.012-25.364-11.677-25.333-26.076C56.43,17.004,67.809,5.443,81.708,5.431z M81.978,51.813
	c5.969,0.407,14.188-4.006,15.595-8.145c-0.832-0.109-1.663-0.178-2.478-0.33c-2.598-0.49-4.182-3.229-3.166-5.697
	c1.077-2.619,2.376-5.141,3.482-7.749c0.184-0.432,0.066-1.307-0.248-1.597c-1.44-1.335-1.316-2.778,0.497-3.989
	c0.645,0.964,1.29,1.93,1.935,2.896c0.163-0.035,0.325-0.069,0.486-0.104c0.121-0.55,0.53-1.347,0.317-1.608
	c-1.578-1.932-0.275-3.521,0.632-5.521c-2.072-2.116-4.204-4.294-6.364-6.5c-2.314,1.853-4.309,3.532-6.397,5.081
	c-1.025,0.76-1.891,0.362-2.027-0.958c-0.104-1.017,0.021-2.063,0.068-3.094c0.188-4.157,0.185-4.165-3.877-3.813
	c-0.088,0.007-0.166,0.133-0.345,0.286c0.348,0.527,0.842,1.021,1.026,1.616c0.313,1.005,0.894,2.29,0.541,3.069
	c-0.915,2.025-0.468,3.773,0.201,5.653c0.339,0.954,0.422,2.002,0.624,3.021c-3.873,1.747-7.877,3.187-8.18,8.411
	c-2.125-1.49-3.578-1.606-4.61-0.389c-0.278,0.328-0.467,0.877-0.422,1.295c0.025,0.226,0.675,0.6,0.967,0.537
	c1.598-0.33,2.258,0.639,2.814,1.887c0.567,1.271,1.333,1.933,2.795,1.117c1.504-0.842,2.855-0.215,4.152,0.715
	c1.507,1.082,2.985,2.271,4.639,3.057c1.766,0.84,2.297,2.112,1.816,3.813c-0.299,1.061-0.986,2.026-1.599,2.97
	C83.989,49.066,83.03,50.33,81.978,51.813z M62.341,25.626c-3.645,11.919,4.85,23.995,14.382,25.503
	c0.346-1.908-0.169-3.527-1.174-5.172c-0.777-1.273-1.615-2.855-1.546-4.256c0.144-2.889,0.385-2.873-2.147-4.248
	c-0.632-0.344-1.222-0.787-1.885-1.047C65.252,34.548,63.343,30.599,62.341,25.626z"/>
<path fill="#FFFFFF" d="M373.433,6.93c0,3.852,0,7.562,0,11.514c-4.754,0-9.436,0-14.285,0c0,12.921,0,25.6,0,38.412
	c-4.674,0-9.178,0-13.865,0c0-12.738,0-25.422,0-38.318c-4.814,0-9.447,0-14.225,0c0-3.961,0-7.71,0-11.606
	C345.138,6.93,359.203,6.93,373.433,6.93z"/>
<path fill="#FFFFFF" d="M157.031,56.905c-4.768,0-9.227,0-13.881,0c0-12.767,0-25.449,0-38.344c-4.822,0-9.455,0-14.229,0
	c0-3.969,0-7.728,0-11.632c13.989,0,28.054,0,42.271,0c0,3.746,0,7.497,0,11.488c-4.623,0-9.303,0-14.162,0
	C157.031,31.334,157.031,44.02,157.031,56.905z"/>
<path fill="#FFFFFF" d="M228.968,6.94c4.598,0,9.105,0,13.824,0c0,6.379,0,12.659,0,18.939c0,6.282,0,12.564,0,19.055
	c7.869,0,15.554,0,23.347,0c0,4.076,0,7.949,0,11.94c-12.394,0-24.728,0-37.171,0C228.968,40.225,228.968,23.639,228.968,6.94z"/>
<g>
	<path fill="#FFFFFF" d="M51.876,67.647h17.083v4.491h-5.731v13.695h-5.62V72.139h-5.731V67.647z"/>
	<path fill="#FFFFFF" d="M71.527,67.647h5.62v6.364h6.141v-6.364h5.645v18.187h-5.645v-7.356h-6.141v7.356h-5.62V67.647z"/>
	<path fill="#FFFFFF" d="M92.654,67.647h15.061v3.883h-9.429v2.891h8.746v3.709h-8.746v3.585h9.701v4.119H92.654V67.647z"/>
	<path fill="#FFFFFF" d="M117.614,67.647h5.338l1.922,10.182l2.813-10.182h5.318l2.819,10.168l1.924-10.168h5.311l-4.01,18.187
		h-5.511l-3.189-11.45l-3.178,11.45h-5.511L117.614,67.647z"/>
	<path fill="#FFFFFF" d="M143.752,76.753c0-2.969,0.827-5.28,2.481-6.935s3.957-2.481,6.91-2.481c3.026,0,5.358,0.813,6.996,2.438
		c1.638,1.625,2.457,3.901,2.457,6.829c0,2.125-0.358,3.868-1.073,5.229c-0.716,1.36-1.749,2.419-3.102,3.176
		s-3.037,1.136-5.056,1.136c-2.051,0-3.748-0.327-5.092-0.98c-1.345-0.653-2.435-1.688-3.27-3.102S143.752,78.879,143.752,76.753z
		 M149.373,76.778c0,1.836,0.341,3.155,1.023,3.957c0.682,0.802,1.61,1.203,2.785,1.203c1.207,0,2.142-0.393,2.804-1.179
		c0.661-0.785,0.992-2.195,0.992-4.229c0-1.713-0.346-2.963-1.036-3.753s-1.627-1.185-2.81-1.185c-1.133,0-2.043,0.4-2.729,1.203
		C149.715,73.598,149.373,74.926,149.373,76.778z"/>
	<path fill="#FFFFFF" d="M165.698,85.834V67.647h9.366c1.737,0,3.064,0.148,3.982,0.446s1.658,0.85,2.221,1.656
		s0.844,1.789,0.844,2.946c0,1.01-0.215,1.88-0.646,2.611c-0.431,0.732-1.022,1.325-1.775,1.78c-0.479,0.29-1.138,0.529-1.974,0.72
		c0.67,0.224,1.157,0.447,1.463,0.671c0.207,0.148,0.507,0.467,0.899,0.956c0.393,0.488,0.655,0.865,0.787,1.13l2.722,5.27h-6.351
		l-3.004-5.558c-0.38-0.72-0.719-1.187-1.017-1.402c-0.405-0.28-0.864-0.421-1.377-0.421h-0.497v7.381H165.698z M171.342,75.017
		h2.37c0.256,0,0.752-0.083,1.488-0.248c0.372-0.075,0.677-0.265,0.912-0.571c0.235-0.306,0.354-0.657,0.354-1.055
		c0-0.587-0.187-1.037-0.559-1.352s-1.071-0.472-2.097-0.472h-2.469V75.017z"/>
	<path fill="#FFFFFF" d="M185.385,67.647h5.62v13.708h8.771v4.479h-14.391V67.647z"/>
	<path fill="#FFFFFF" d="M202.406,67.647h8.35c1.646,0,2.975,0.224,3.988,0.67c1.013,0.446,1.851,1.088,2.512,1.923
		c0.662,0.835,1.142,1.807,1.439,2.915s0.446,2.283,0.446,3.523c0,1.943-0.221,3.451-0.663,4.521
		c-0.443,1.071-1.057,1.969-1.843,2.692c-0.785,0.724-1.629,1.205-2.53,1.445c-1.232,0.331-2.35,0.496-3.35,0.496h-8.35V67.647z
		 M208.026,71.766v9.938h1.377c1.175,0,2.01-0.131,2.506-0.391c0.496-0.261,0.885-0.716,1.166-1.365
		c0.281-0.648,0.422-1.701,0.422-3.157c0-1.927-0.314-3.246-0.942-3.957c-0.629-0.711-1.671-1.067-3.126-1.067H208.026z"/>
	<path fill="#FFFFFF" d="M230.79,67.647h5.632v18.187h-5.632V67.647z"/>
	<path fill="#FFFFFF" d="M239.474,79.817l5.346-0.335c0.116,0.868,0.352,1.53,0.707,1.984c0.58,0.736,1.406,1.104,2.482,1.104
		c0.801,0,1.42-0.188,1.854-0.564c0.435-0.376,0.652-0.813,0.652-1.309c0-0.472-0.207-0.894-0.621-1.266s-1.373-0.724-2.878-1.055
		c-2.464-0.554-4.222-1.29-5.272-2.208c-1.059-0.918-1.588-2.088-1.588-3.511c0-0.935,0.271-1.817,0.813-2.648
		c0.542-0.831,1.356-1.484,2.443-1.96c1.088-0.476,2.579-0.714,4.473-0.714c2.324,0,4.096,0.433,5.316,1.297
		c1.22,0.864,1.945,2.239,2.177,4.125l-5.297,0.31c-0.142-0.818-0.437-1.414-0.888-1.786c-0.45-0.372-1.072-0.559-1.867-0.559
		c-0.652,0-1.145,0.139-1.476,0.416s-0.496,0.614-0.496,1.011c0,0.29,0.136,0.551,0.409,0.782c0.265,0.239,0.893,0.463,1.886,0.67
		c2.456,0.529,4.216,1.064,5.278,1.606c1.063,0.541,1.836,1.214,2.32,2.016c0.483,0.802,0.726,1.699,0.726,2.692
		c0,1.166-0.323,2.241-0.968,3.225c-0.645,0.984-1.547,1.73-2.705,2.239c-1.157,0.509-2.617,0.764-4.379,0.764
		c-3.093,0-5.234-0.596-6.426-1.787C240.304,83.167,239.63,81.653,239.474,79.817z"/>
	<path fill="#FFFFFF" d="M265.401,67.647h5.338l1.922,10.182l2.813-10.182h5.318l2.819,10.168l1.924-10.168h5.311l-4.009,18.187
		h-5.511l-3.19-11.45l-3.177,11.45h-5.511L265.401,67.647z"/>
	<path fill="#FFFFFF" d="M303.863,82.832h-6.381l-0.886,3.002h-5.738l6.836-18.187h6.13l6.834,18.187h-5.886L303.863,82.832z
		 M302.697,78.899l-2.008-6.538l-1.986,6.538H302.697z"/>
	<path fill="#FFFFFF" d="M312.667,67.647h5.632v18.187h-5.632V67.647z"/>
	<path fill="#FFFFFF" d="M321.053,67.647h17.083v4.491h-5.731v13.695h-5.62V72.139h-5.731V67.647z"/>
	<path fill="#FFFFFF" d="M340.902,67.647h5.632v18.187h-5.632V67.647z"/>
	<path fill="#FFFFFF" d="M350.603,67.647h5.247l6.848,10.062V67.647h5.298v18.187h-5.298l-6.811-9.985v9.985h-5.284V67.647z"/>
	<path fill="#FFFFFF" d="M380.873,79.247v-3.784h8.684v7.754c-1.662,1.133-3.132,1.904-4.41,2.313
		c-1.277,0.409-2.793,0.614-4.547,0.614c-2.158,0-3.918-0.368-5.278-1.104s-2.415-1.832-3.163-3.287
		c-0.749-1.456-1.123-3.127-1.123-5.013c0-1.984,0.409-3.711,1.229-5.179c0.818-1.468,2.018-2.582,3.598-3.344
		c1.232-0.587,2.891-0.881,4.975-0.881c2.01,0,3.513,0.183,4.509,0.546c0.997,0.364,1.824,0.929,2.481,1.693
		c0.657,0.766,1.151,1.735,1.482,2.909l-5.421,0.968c-0.224-0.687-0.602-1.211-1.136-1.575c-0.533-0.364-1.214-0.546-2.04-0.546
		c-1.232,0-2.215,0.428-2.946,1.284c-0.732,0.855-1.099,2.21-1.099,4.063c0,1.969,0.37,3.374,1.11,4.218s1.772,1.266,3.096,1.266
		c0.628,0,1.228-0.091,1.799-0.273c0.57-0.182,1.224-0.491,1.96-0.93v-1.712H380.873z"/>
</g>
</svg>
